<?xml version="1.0" standalone="no"?>
<!DOCTYPE svg PUBLIC "-//W3C//DTD SVG 20010904//EN"
 "http://www.w3.org/TR/2001/REC-SVG-20010904/DTD/svg10.dtd">
<svg version="1.0" xmlns="http://www.w3.org/2000/svg"
 width="1824.000000pt" height="1824.000000pt" viewBox="0 0 1824.000000 1824.000000"
 preserveAspectRatio="xMidYMid meet" fill="#dbc9bd">

<g transform="translate(0.000000,1824.000000) scale(0.100000,-0.100000)"
fill="#000000" stroke="none">
<path d="M8770 18183 c-1593 -68 -3046 -500 -4378 -1300 -1138 -683 -2125
-1619 -2894 -2743 -82 -119 -308 -481 -337 -538 -19 -37 -20 -43 -6 -48 8 -3
15 -12 15 -20 0 -15 -54 -117 -75 -144 -26 -32 -322 -631 -339 -687 -5 -17
-15 -23 -35 -23 -32 0 -41 -15 -135 -256 -60 -153 -63 -166 -42 -183 16 -13
15 -16 -27 -136 -23 -63 -41 -111 -66 -170 -12 -29 -41 -125 -41 -138 0 -18
-31 -46 -45 -40 -39 14 -237 -798 -304 -1252 -12 -77 -30 -216 -41 -310 -19
-170 -19 -170 1 -188 18 -17 20 -27 14 -76 -6 -57 -13 -174 -23 -361 -9 -182
-4 -779 8 -930 23 -296 23 -309 6 -316 -21 -8 -21 -52 4 -255 68 -550 208
-1163 386 -1698 218 -651 490 -1226 884 -1869 349 -568 822 -1164 1330 -1672
249 -250 308 -306 485 -459 402 -350 921 -729 1340 -978 227 -136 233 -139
247 -125 7 7 20 12 29 12 17 0 79 -32 109 -56 35 -27 554 -284 575 -284 6 0
35 -13 65 -28 38 -20 56 -35 58 -50 5 -30 52 -54 312 -154 848 -327 1768 -528
2705 -589 237 -16 864 -16 1085 0 620 44 1075 115 1665 262 262 65 297 77 290
99 -5 15 7 22 82 45 48 15 177 56 287 93 165 54 202 63 218 53 20 -13 50 -4
243 72 815 321 1617 789 2339 1367 874 698 1629 1557 2193 2495 550 913 897
1806 1107 2845 65 322 103 609 148 1095 18 191 18 1059 0 1255 -57 634 -122
1033 -246 1520 -76 295 -79 304 -104 308 -22 3 -25 10 -72 162 -18 58 -36 114
-40 125 -27 71 -33 106 -21 128 11 20 5 43 -43 175 -178 487 -446 1045 -719
1497 -434 721 -991 1413 -1578 1962 -202 188 -264 243 -449 399 -667 560
-1422 1023 -2235 1372 -688 295 -1329 483 -2110 617 -535 92 -1293 141 -1825
118z m725 -73 c1284 -61 2477 -366 3600 -920 769 -379 1478 -861 2095 -1425
395 -360 789 -783 1063 -1139 620 -806 1022 -1521 1364 -2426 267 -705 447
-1497 512 -2260 42 -483 42 -1078 0 -1530 -84 -919 -317 -1855 -660 -2653
-324 -756 -738 -1444 -1273 -2115 -724 -909 -1660 -1712 -2666 -2287 -1183
-676 -2518 -1079 -3865 -1164 -1161 -74 -2300 76 -3420 450 -1622 543 -3084
1569 -4210 2954 -690 850 -1207 1782 -1543 2780 -488 1451 -590 2991 -296
4480 134 680 332 1295 624 1936 278 612 663 1246 1087 1790 122 157 308 383
382 464 141 152 191 205 341 359 700 714 1529 1315 2450 1776 1331 666 2921
1001 4415 930z"/>
<path d="M5950 13135 c0 -5 -130 -620 -180 -850 -47 -219 -90 -423 -96 -463
l-7 -43 68 3 67 3 23 90 c31 120 51 177 90 255 211 418 653 622 1530 706 104
10 328 17 636 21 l477 6 6 -99 c24 -339 28 -576 33 -1829 3 -764 6 -1391 8
-1393 1 -2 60 -12 131 -22 130 -20 413 -86 604 -140 58 -16 110 -29 117 -30 8
0 12 379 16 1513 4 1383 10 1690 33 1936 l6 64 496 -6 c274 -3 549 -11 612
-17 386 -36 633 -86 885 -177 225 -81 347 -154 481 -287 139 -140 220 -286
278 -505 l23 -86 66 -3 c37 -2 67 0 67 3 0 2 -32 155 -71 337 -38 183 -85 405
-104 493 -18 88 -49 239 -70 335 -20 96 -40 179 -45 184 -5 4 -48 -10 -98 -33
-99 -46 -172 -64 -332 -83 -153 -19 -5108 -19 -5290 0 -154 16 -263 42 -359
87 -68 33 -101 42 -101 30z"/>
<path d="M5280 11486 l0 -53 98 -7 c102 -8 236 -34 311 -60 119 -43 246 -152
299 -258 43 -84 80 -235 93 -377 7 -77 9 -708 6 -1896 -3 -1607 -5 -1788 -20
-1860 -41 -195 -90 -297 -188 -390 -116 -109 -281 -170 -498 -183 l-106 -7 0
-50 0 -50 1248 -3 1248 -2 -3 52 -3 53 -95 6 c-242 16 -418 85 -532 208 -158
170 -194 398 -185 1176 4 362 6 408 25 487 105 438 448 715 926 747 272 18
507 -13 912 -123 325 -88 383 -103 509 -129 192 -40 312 -50 526 -44 292 7
496 55 719 167 269 135 500 351 645 604 14 25 9 -2296 -5 -2429 -15 -135 -44
-245 -88 -334 -95 -195 -311 -311 -609 -328 l-103 -6 0 -54 0 -53 1245 0 1245
0 0 55 0 55 -67 0 c-82 0 -226 24 -308 52 -153 51 -276 150 -333 268 -43 87
-78 230 -94 375 -19 174 -19 3528 0 3660 45 316 142 489 324 579 97 48 195 73
351 88 l128 12 -3 51 -3 50 -1240 0 -1240 0 -3 -51 -3 -51 123 -11 c372 -34
570 -175 643 -456 39 -154 46 -272 43 -689 -5 -462 -3 -455 -103 -654 -169
-337 -516 -523 -974 -523 -243 1 -436 33 -804 136 -471 132 -668 167 -942 166
-328 0 -559 -52 -820 -184 -266 -135 -460 -318 -597 -563 l-28 -50 3 1065 c3
1050 3 1067 25 1177 76 388 245 536 660 576 l123 11 -3 51 -3 50 -1237 2
-1238 2 0 -53z"/>
<path d="M8600 7598 c0 -1146 -7 -1528 -31 -1718 -45 -364 -213 -570 -539
-664 -77 -21 -159 -34 -331 -51 l-56 -6 -2 -50 -1 -49 1389 0 1389 0 4 49 3
50 -65 6 c-355 30 -573 121 -698 290 -121 164 -162 341 -186 810 -3 55 -6 602
-6 1216 l0 1115 -97 19 c-104 19 -401 91 -618 150 -71 19 -136 35 -142 35 -10
0 -13 -247 -13 -1202z"/>
</g>
</svg>
